#!OML:ASF F:\VICON\USERDATA\INSTALL\rory3\rory3.ASF
:FULLY-SPECIFIED
:DEGREES
2256
root 15.6375 18.5098 -1.58838 184.711 -7.89301 181.258
lowerback 11.932 -0.153579 -6.06616
upperback 6.83326 -1.90948 -4.21047
thorax 0.495172 -1.48616 -0.766456
lowerneck -8.92648 9.41404 -4.40279
upperneck 24.5361 12.1318 1.74853
head 8.72512 4.95113 2.4078
rclavicle 2.78299e-014 3.97569e-014
rhumerus -13.4499 18.0167 -73.6067
rradius 132.975
rwrist -25.0263
rhand -54.0835 -24.124
rfingers 7.12502
rthumb -26.5032 307.71
lclavicle 2.78299e-014 3.97569e-014
lhumerus -6.83525 -28.9349 101.888
lradius 57.4687
lwrist 105.36
lhand -34.1699 48.8457
lfingers 7.12502
lthumb -7.34356 78.6983
rfemur -26.8699 17.2583 11.5774
rtibia 39.507
rfoot -19.2013 -9.52774
rtoes -0.325525
lfemur -17.805 6.22256 -18.3527
ltibia 34.7226
lfoot -19.7308 5.23937
ltoes 5.26845
2257
root 15.6856 18.5188 -1.59395 184.77 -8.66977 181.49
lowerback 11.9429 -0.207021 -5.70005
upperback 6.81966 -1.92113 -4.16347
thorax 0.464715 -1.47241 -0.918579
lowerneck -9.12834 9.48245 -4.32855
upperneck 24.4874 12.2379 1.84498
head 8.73957 5.03218 2.44863
rclavicle 5.40694e-014 1.24042e-013
rhumerus -13.6297 18.8022 -73.8187
rradius 132.857
rwrist -24.9528
rhand -54.6097 -24.4897
rfingers 7.12502
rthumb -27.0068 307.421
lclavicle 5.40694e-014 1.24042e-013
lhumerus -6.53727 -28.5083 101.929
lradius 57.8561
lwrist 104.862
lhand -33.7843 47.5218
lfingers 7.12502
lthumb -6.97133 77.387
rfemur -26.7076 17.7366 11.2976
rtibia 39.1571
rfoot -18.7959 -8.88617
rtoes -0.697679
lfemur -18.0043 5.85536 -17.8883
ltibia 34.665
lfoot -19.4024 4.97295
ltoes 4.73778
2258
root 15.7342 18.5254 -1.60166 184.835 -9.38246 181.866
lowerback 11.8137 -0.178525 -5.13025
upperback 6.78908 -1.78216 -4.10744
thorax 0.483362 -1.37466 -1.19471
lowerneck -9.01274 9.44928 -4.0897
upperneck 24.2488 12.1979 1.72281
head 8.66323 5.04508 2.35619
rclavicle -3.89618e-014 -1.59028e-014
rhumerus -14.0476 19.3339 -74.0262
rradius 132.779
rwrist -24.9273
rhand -54.8105 -23.564
rfingers 7.12502
rthumb -27.1989 308.377
lclavicle -3.89618e-014 -1.59028e-014
lhumerus -6.24802 -28.3069 102.041
lradius 58.1349
lwrist 104.513
lhand -33.5247 43.4743
lfingers 7.12502
lthumb -6.72073 73.3476
rfemur -26.5851 18.4143 11.1589
rtibia 38.7515
rfoot -18.3679 -8.38979
rtoes -1.392
lfemur -18.2287 5.61783 -17.2756
ltibia 34.5634
lfoot -18.9823 4.70761
ltoes 3.98281
2259
root 15.7862 18.5309 -1.61092 184.889 -10.02 182.02
lowerback 11.7116 -0.184033 -4.78396
upperback 6.71801 -1.73125 -4.1999
thorax 0.450367 -1.32858 -1.49007
lowerneck -8.67034 9.50518 -3.67005
upperneck 23.8574 12.2619 1.45792
head 8.51335 5.11392 2.18115
rclavicle 5.56597e-015 -5.24792e-014
rhumerus -14.6179 20.4197 -74.6019
rradius 133.003
rwrist -25.8899
rhand -52.0542 -18.1498
rfingers 7.12502
rthumb -24.5594 313.405
lclavicle 5.56597e-015 -5.24792e-014
lhumerus -5.81717 -28.0449 101.899
lradius 58.2355
lwrist 104.014
lhand -34.8153 47.9365
lfingers 7.12502
lthumb -7.96653 77.7664
rfemur -26.3653 18.9401 10.874
rtibia 38.3215
rfoot -17.9104 -7.81315
rtoes -2.31457
lfemur -18.3662 5.42142 -16.8986
ltibia 34.4033
lfoot -18.6849 4.39904
ltoes 3.78161
2260
root 15.8402 18.54 -1.62161 184.854 -10.7254 182.023
lowerback 12.099 -0.239132 -4.79785
upperback 6.46266 -1.81664 -4.20336
thorax -0.0254363 -1.34806 -1.45999
lowerneck -8.37638 9.65155 -3.42441
upperneck 23.8256 12.4143 1.37269
head 8.46798 5.19809 2.11152
rclavicle -7.95139e-016 -2.54444e-014
rhumerus -15.2011 21.1001 -74.9159
rradius 132.696
rwrist -25.5676
rhand -52.6366 -17.7858
rfingers 7.12502
rthumb -25.1176 313.846
lclavicle -7.95139e-016 -2.54444e-014
lhumerus -5.57855 -27.4935 101.944
lradius 58.4926
lwrist 103.963
lhand -37.1924 53.0393
lfingers 7.12502
lthumb -10.2602 82.7691
rfemur -25.943 19.1843 10.5394
rtibia 37.8431
rfoot -17.4307 -6.88304
rtoes -3.26773
lfemur -18.3661 5.10941 -16.6535
ltibia 34.2276
lfoot -18.4334 4.08791
ltoes 3.69635
2261
root 15.8941 18.5502 -1.62882 184.931 -11.6065 181.943
lowerback 12.4047 -0.340352 -4.83748
upperback 6.2411 -1.95962 -4.20672
thorax -0.41985 -1.39875 -1.41086
lowerneck -8.22655 9.75257 -3.32392
upperneck 23.8319 12.5283 1.36166
head 8.44775 5.259 2.09401
rclavicle 3.89618e-014 1.74931e-014
rhumerus -15.7978 22.0592 -75.2642
rradius 132.805
rwrist -25.4329
rhand -52.8416 -20.2662
rfingers 7.12502
rthumb -25.314 311.394
lclavicle 3.89618e-014 1.74931e-014
lhumerus -5.21122 -27.1295 101.949
lradius 58.9053
lwrist 105.077
lhand -40.7615 57.6903
lfingers 7.12502
lthumb -13.7018 87.2192
rfemur -25.6158 19.45 10.056
rtibia 37.3401
rfoot -17.0149 -6.13943
rtoes -4.34469
lfemur -18.4908 4.46746 -16.5174
ltibia 33.9893
lfoot -18.1338 3.94236
ltoes 3.57916
